<svg fill="none" viewBox="0 0 24 24" id="v_google">
            <path
              d="M6.433 14.086l-.696 2.599-2.545.054a9.955 9.955 0 01-1.191-4.74 9.95 9.95 0 011.118-4.598l2.266.415.992 2.252A5.944 5.944 0 006.056 12c0 .734.133 1.437.377 2.086z"
              fill="#FBBB00"
            />
            <path
              d="M21.825 10.132a10.02 10.02 0 01-.044 3.956 9.997 9.997 0 01-3.52 5.71l-2.854-.146-.404-2.521a5.96 5.96 0 002.564-3.043H12.22v-3.956h9.605z"
              fill="#518EF8"
            />
            <path
              d="M18.26 19.798A9.957 9.957 0 0112 22a9.998 9.998 0 01-8.808-5.26l3.24-2.654a5.946 5.946 0 008.57 3.045l3.258 2.667z"
              fill="#28B446"
            />
            <path
              d="M18.384 4.302l-3.24 2.652a5.948 5.948 0 00-8.767 3.114L3.12 7.401a9.998 9.998 0 018.88-5.4c2.427 0 4.652.863 6.384 2.301z"
              fill="#F14336"
            />
          </svg>