<svg fill="none" viewBox="0 0 24 24" id="v_twitter">
            <path
              d="M19.953 7.983c.012.174.012.347.012.523C19.965 13.844 15.837 20 8.29 20v-.003A11.75 11.75 0 012 18.186a8.322 8.322 0 006.073-1.674c-1.756-.033-3.296-1.16-3.834-2.806a4.152 4.152 0 001.853-.07C4.178 13.256 2.8 11.6 2.8 9.676v-.05c.57.312 1.21.486 1.863.505a4.007 4.007 0 01-1.27-5.394 11.708 11.708 0 008.456 4.22 4.002 4.002 0 011.187-3.86 4.153 4.153 0 015.806.176c.919-.178 1.8-.51 2.606-.98a4.067 4.067 0 01-1.804 2.233A8.26 8.26 0 0022 5.89a8.267 8.267 0 01-2.047 2.093z"
              fill="#1D9BF0"
            />
          </svg>